<svg width="286" height="306" viewBox="0 0 286 306" fill="none" xmlns="http://www.w3.org/2000/svg">
<path d="M93.0313 0.00746155C88.1695 -0.0745385 80.1005 1.55744 80.2813 5.28866C66.7394 2.96774 65.3293 8.56133 66.1251 13.5387C67.4135 11.5634 68.9823 10.4909 70.1876 10.2887C71.9934 9.989 73.883 10.5722 75.8126 11.7574C77.7423 12.9427 79.8682 14.8554 80.8126 16.0386C76.0332 17.1813 72.3409 16.4436 68.5938 15.7884C66.7467 15.4653 64.1618 14.4262 62.6251 13.351C61.0885 12.2755 60.6046 11.2634 58.1876 8.78849C55.3379 5.87051 52.305 6.69212 53.2501 11.226C55.4357 15.4369 59.0867 17.3146 63.6876 18.0697C65.9016 18.4333 69.1996 19.2224 72.9376 19.226C76.6757 19.23 80.8728 18.686 83.1564 19.1635C81.7845 20.0248 80.2321 21.5097 77.1564 22.101C74.0286 22.7022 69.2733 20.241 66.3752 19.5697C66.7433 22.0083 69.8192 24.2879 75.8752 25.476C85.8267 27.6429 94.096 29.2897 99.5627 32.2572C105.029 35.2247 108.476 38.9399 110.938 41.851C115.836 47.6441 116.094 52.0912 116.406 53.0697C117.414 62.3254 114.187 67.5319 108.188 69.1322C105.188 69.9323 99.8598 68.4257 97.9065 66.1322C95.953 63.8393 94.0524 59.898 94.594 53.726C95.1205 51.3047 97.8892 44.9979 95.5315 43.6948C84.6699 37.6915 71.4803 31.6204 61.9377 28.0075C59.3295 27.02 57.1809 30.5648 56.3439 31.945C40.1328 29.9708 25.5169 19.0007 18.9377 7.31999C14.4567 -0.635558 7.07124 7.33639 8.31274 14.8512C10.317 23.2388 16.7078 29.3031 24.3752 33.6012C32.2448 37.9343 42.0811 42.1982 52.0314 41.9762C57.3921 42.9903 57.3392 49.9257 50.9064 51.2262C38.3255 51.3058 28.289 50.9922 18.8127 41.8512C11.6249 35.2884 7.57844 43.1082 9.6564 47.5387C13.1777 61.197 32.6627 65.0217 52.3751 60.6012C60.0085 59.337 55.4376 67.5166 53.2813 67.6012C45.0447 73.5068 30.2986 79.2853 17.3125 67.5387C11.3701 62.9885 7.35236 66.8133 9.56253 73.3825C15.3247 90.5099 37.3662 86.9127 52.5 78.4762C56.3953 76.3048 59.9305 81.3567 55.1875 85.195C36.3674 98.3453 26.9577 98.4949 18.4688 93.445C7.84131 89.2537 6.90651 101.041 13.2188 104.914C20.2348 109.218 38.0889 105.991 51.1876 97.7575C56.803 93.5827 57.0571 100.111 53.5001 102.695C37.9559 116.128 31.8291 119.666 15.6251 117.476C7.58997 116.85 7.71066 126.756 14.0314 130.632C22.6612 135.925 39.514 127.14 52.5938 116.289C58.0991 113.347 59.0032 118.171 56.2813 123.882C48.2893 133.966 40.7881 139.91 33.5626 142.664C26.3371 145.417 19.3871 144.978 14.4688 143.288C8.46863 141.227 7.71622 147.462 11.0314 153.132C13.0297 156.549 21.3111 157.645 30.2501 154.476C39.1891 151.307 48.7859 143.873 55.3751 135.163C61.108 130.144 60.395 136.887 57.7813 141.632C44.5869 162.491 32.5193 170.228 16.6251 168.913C9.57758 167.716 7.97702 173.197 12.4689 178.257C20.3563 184.798 30.2182 184.593 38.8439 178.132C46.5121 170.739 61.1818 154.818 68.8751 146.288C74.2965 141.966 76.0283 146.227 74.4377 155.007C72.991 160.035 69.3694 165.33 59.5002 169.194C52.7579 173.042 57.8211 178.346 62.8752 178.444C65.6565 178.498 71.3044 175.247 75.6252 170.382C81.3094 163.981 81.6474 159.684 84.7814 149.726C87.7423 144.871 93.0309 147.137 93.0314 152.226C90.495 162.201 88.3156 163.989 83.1877 168.069C78.2829 172.674 86.6029 174.209 89.4064 172.319C97.5168 166.853 100.478 159.781 103.188 153.351C105.144 148.709 110.818 150.959 108.188 158.538C101.902 176.651 91.5725 183.783 73.5002 187.444C71.6686 187.77 70.5514 188.851 71.1877 190.976C73.6133 193.494 76.0433 195.779 78.469 198.288C67.2939 201.542 58.2149 203.37 47.0313 206.632C41.5444 203.035 37.1119 199.983 31.6251 196.382C30.1782 193 29.5036 187.837 21.4063 191.476C15.9194 188.942 13.3884 189.871 10.3438 192.414C14.7392 192.577 16.6516 193.754 18.375 195.757C20.6251 201.683 25.8138 202.256 31.125 200.57C34.5803 203.481 36.4204 205.713 39.875 208.632C33.4258 208.412 28.9328 208.297 22.5 208.101C16.3593 201.508 11.458 201.869 7.06248 207.039C3.71241 207.554 2.2923 207.626 0 211.695C3.60513 210.215 5.87323 209.772 7.43752 211.383C13.9662 215.168 18.2313 214.323 21.4688 211.383C27.7676 211.768 33.4434 212.094 39.75 212.508C37.4334 214.477 34.2542 215.521 31.9375 217.508C22.4772 214.801 17.5396 218.444 15.875 226.164C14.6071 229.28 14.0135 232.488 14.5625 235.82C15.4782 232.772 16.9504 230.151 19.6562 228.508C28.0882 230.65 31.2588 227.207 31.7187 222.164C35.7832 218.848 41.9122 218.116 45.9687 214.758C50.7117 216.276 53.0045 217.217 57.7812 218.727C59.4796 223.887 63.3225 225.931 69.5624 224.602C76.9904 224.835 75.6791 227.882 76.2812 230.32C78.2553 226.819 78.2003 223.414 73.6249 220.32C71.9603 215.798 68.2722 213.741 63.4374 216.352C58.8865 215.06 57.6901 213.202 53.1562 211.914C64.6243 208.259 72.7592 207.436 84.2188 203.789C87.0872 206.495 89.3606 208.437 92.25 210.852C93.7728 211.76 95.2305 211.989 96.125 210.852C103.306 200.458 106.513 191.299 113.188 184.445C115.738 181.61 118.959 177.784 122.531 176.852C124.317 176.385 126.508 176.67 127.906 178.195C129.305 179.721 130.403 182.532 129.938 186.727C129.269 192.747 127.814 194.648 126.125 198.258C124.436 201.867 122.372 204.088 120.25 206.852C116.007 212.379 110.408 215.597 107.094 217.758C100.466 222.08 97.6631 220.188 92.5313 219.914C85.8986 220.658 84.1338 223.889 89.5626 228.351C94.6375 230.992 99.1991 231.318 102.906 230.633C106.09 230.044 109.815 225.936 112.469 223.726C115.457 220.275 120.41 224.368 117.031 228.383C110.892 235.677 104.758 240.487 97.1876 240.383C89.2329 241.453 90.7209 245.923 96.0001 248.101C105.501 252.023 114.08 244.678 118.438 239.851C121.8 236.173 124.188 236.03 123.594 241.726C120.256 252.04 115.695 256.024 108.25 256.539C102.212 255.978 102.146 260.639 106.563 263.789C116.623 270.752 123.908 258.894 127.313 251.726C129.738 245.261 133.459 248.336 133.844 253.664C133.894 260.783 130.677 266.596 122.063 273.883C128.654 284.384 136.338 295.066 142.938 305.601L162.943 82.7955L142.943 47.5935C140.86 45.6704 133.815 37.3705 131.974 36.2185C131.303 35.5012 130.894 34.9944 131.88 34.6248C132.834 34.2675 135.066 33.867 136.568 33.5935C132.326 29.3446 128.691 27.9819 120.661 25.6562C122.618 24.8228 124.522 25.308 130.286 25.0317C127.998 21.783 122.886 16.8068 116.286 14.4062C120.645 11.3077 121.494 11.1001 125.818 7.46877C118.331 6.93777 111.938 5.51165 105.505 3.56252C101.438 1.66091 95.7897 0.04636 93.0364 0L93.0313 0.00746155ZM93.7504 8.72621C97.7066 8.72621 100.157 10.0823 100.157 11.7262C100.157 13.3986 97.7066 14.7575 93.7504 14.7575C89.8106 14.7575 87.3129 13.2745 87.3129 11.6013C87.3136 9.95741 89.8106 8.72621 93.7504 8.72621Z" fill="black"/>
<path d="M192.844 0.00746155C197.706 -0.0745385 205.775 1.55744 205.594 5.28866C219.136 2.96774 220.546 8.56133 219.75 13.5387C218.461 11.5634 216.893 10.4909 215.687 10.2887C213.882 9.989 211.992 10.5722 210.062 11.7574C208.133 12.9427 206.007 14.8554 205.062 16.0386C209.842 17.1813 213.534 16.4436 217.281 15.7884C219.128 15.4653 221.713 14.4262 223.25 13.351C224.787 12.2755 225.27 11.2634 227.687 8.78849C230.537 5.87051 233.57 6.69212 232.625 11.226C230.439 15.4369 226.788 17.3146 222.187 18.0697C219.973 18.4333 216.675 19.2224 212.937 19.226C209.199 19.23 205.002 18.686 202.719 19.1635C204.09 20.0248 205.643 21.5097 208.719 22.101C211.846 22.7022 216.602 20.241 219.5 19.5697C219.132 22.0083 216.056 24.2879 210 25.476C200.048 27.6429 191.779 29.2897 186.312 32.2572C180.846 35.2247 177.399 38.9399 174.937 41.851C170.039 47.6441 169.781 52.0912 169.469 53.0697C168.461 62.3254 171.688 67.5319 177.687 69.1322C180.687 69.9323 186.015 68.4257 187.969 66.1322C189.922 63.8393 191.823 59.898 191.281 53.726C190.755 51.3047 187.986 44.9979 190.344 43.6948C201.205 37.6915 214.395 31.6204 223.937 28.0075C226.545 27.02 228.694 30.5648 229.531 31.945C245.742 29.9708 260.358 19.0007 266.937 7.31999C271.418 -0.635558 278.804 7.33639 277.562 14.8512C275.558 23.2388 269.167 29.3031 261.5 33.6012C253.63 37.9343 243.794 42.1982 233.844 41.9762C228.483 42.9903 228.536 49.9257 234.969 51.2262C247.549 51.3058 257.586 50.9922 267.062 41.8512C274.25 35.2884 278.297 43.1082 276.219 47.5387C272.697 61.197 253.212 65.0217 233.5 60.6012C225.866 59.337 230.437 67.5166 232.594 67.6012C240.83 73.5068 255.576 79.2853 268.562 67.5387C274.505 62.9885 278.523 66.8133 276.312 73.3825C270.55 90.5099 248.509 86.9127 233.375 78.4762C229.48 76.3048 225.944 81.3567 230.687 85.195C249.508 98.3453 258.917 98.4949 267.406 93.445C278.034 89.2537 278.968 101.041 272.656 104.914C265.64 109.218 247.786 105.991 234.687 97.7575C229.072 93.5827 228.818 100.111 232.375 102.695C247.919 116.128 254.046 119.666 270.25 117.476C278.285 116.85 278.164 126.756 271.844 130.632C263.214 135.925 246.361 127.14 233.281 116.289C227.776 113.347 226.872 118.171 229.594 123.882C237.586 133.966 245.087 139.91 252.312 142.664C259.538 145.417 266.488 144.978 271.406 143.288C277.406 141.227 278.159 147.462 274.844 153.132C272.845 156.549 264.564 157.645 255.625 154.476C246.686 151.307 237.089 143.873 230.5 135.163C224.767 130.144 225.48 136.887 228.094 141.632C241.288 162.491 253.356 170.228 269.25 168.913C276.297 167.716 277.898 173.197 273.406 178.257C265.519 184.798 255.657 184.593 247.031 178.132C239.363 170.739 224.693 154.818 217 146.288C211.579 141.966 209.847 146.227 211.437 155.007C212.884 160.035 216.506 165.33 226.375 169.194C233.117 173.042 228.054 178.346 223 178.444C220.218 178.498 214.571 175.247 210.25 170.382C204.566 163.981 204.228 159.684 201.094 149.726C198.133 144.871 192.844 147.137 192.844 152.226C195.38 162.201 197.559 163.989 202.687 168.069C207.592 172.674 199.272 174.209 196.469 172.319C188.358 166.853 185.397 159.781 182.687 153.351C180.731 148.709 175.057 150.959 177.687 158.538C183.973 176.651 194.303 183.783 212.375 187.444C214.206 187.77 215.324 188.851 214.687 190.976C212.262 193.494 209.832 195.779 207.406 198.288C218.581 201.542 227.66 203.37 238.844 206.632C244.331 203.035 248.763 199.983 254.25 196.382C255.697 193 256.371 187.837 264.469 191.476C269.956 188.942 272.487 189.871 275.531 192.414C271.136 192.577 269.223 193.754 267.5 195.757C265.25 201.683 260.061 202.256 254.75 200.57C251.295 203.481 249.455 205.713 246 208.632C252.449 208.412 256.942 208.297 263.375 208.101C269.516 201.508 274.417 201.869 278.813 207.039C282.163 207.554 283.583 207.626 285.875 211.695C282.27 210.215 280.002 209.772 278.437 211.383C271.909 215.168 267.644 214.323 264.406 211.383C258.107 211.768 252.432 212.094 246.125 212.508C248.442 214.477 251.621 215.521 253.938 217.508C263.398 214.801 268.335 218.444 270 226.164C271.268 229.28 271.862 232.488 271.312 235.82C270.397 232.772 268.925 230.151 266.219 228.508C257.787 230.65 254.616 227.207 254.156 222.164C250.092 218.848 243.963 218.116 239.906 214.758C235.163 216.276 232.871 217.217 228.094 218.727C226.395 223.887 222.552 225.931 216.313 224.602C208.885 224.835 210.196 227.882 209.594 230.32C207.62 226.819 207.675 223.414 212.25 220.32C213.915 215.798 217.603 213.741 222.438 216.352C226.989 215.06 228.185 213.202 232.719 211.914C221.251 208.259 213.116 207.436 201.656 203.789C198.788 206.495 196.514 208.437 193.625 210.852C192.102 211.76 190.644 211.989 189.75 210.852C182.569 200.458 179.362 191.299 172.687 184.445C170.137 181.61 166.916 177.784 163.344 176.852C161.558 176.385 159.367 176.67 157.969 178.195C156.57 179.721 155.472 182.532 155.937 186.727C156.606 192.747 158.061 194.648 159.75 198.258C161.439 201.867 163.503 204.088 165.625 206.852C169.868 212.379 175.467 215.597 178.781 217.758C185.409 222.08 188.212 220.188 193.344 219.914C199.976 220.658 201.741 223.889 196.312 228.351C191.237 230.992 186.676 231.318 182.969 230.633C179.785 230.044 176.06 225.936 173.406 223.726C170.418 220.275 165.465 224.368 168.844 228.383C174.983 235.677 181.117 240.487 188.687 240.383C196.642 241.453 195.154 245.923 189.875 248.101C180.374 252.023 171.795 244.678 167.437 239.851C164.075 236.173 161.687 236.03 162.281 241.726C165.619 252.04 170.18 256.024 177.625 256.539C183.663 255.978 183.729 260.639 179.312 263.789C169.252 270.752 161.967 258.894 158.562 251.726C156.137 245.261 152.416 248.336 152.031 253.664C151.981 260.783 155.198 266.596 163.812 273.883C157.221 284.384 149.537 295.066 142.937 305.601L122.932 82.7955L142.932 47.5935C145.015 45.6704 152.06 37.3705 153.901 36.2185C154.572 35.5012 154.981 34.9944 153.995 34.6248C153.041 34.2675 150.809 33.867 149.307 33.5935C153.549 29.3446 157.184 27.9819 165.214 25.6562C163.257 24.8228 161.353 25.308 155.589 25.0317C157.877 21.783 162.989 16.8068 169.589 14.4062C165.23 11.3077 164.381 11.1001 160.057 7.46877C167.544 6.93777 173.937 5.51165 180.37 3.56252C184.437 1.66091 190.085 0.04636 192.839 0L192.844 0.00746155ZM192.125 8.72621C188.168 8.72621 185.718 10.0823 185.718 11.7262C185.718 13.3986 188.168 14.7575 192.125 14.7575C196.064 14.7575 198.562 13.2745 198.562 11.6013C198.561 9.95741 196.064 8.72621 192.125 8.72621Z" fill="black"/>
</svg>
