<?xml version="1.0" encoding="utf-8"?>
<!-- Generator: Adobe Illustrator 28.0.0, SVG Export Plug-In . SVG Version: 6.00 Build 0)  -->
<svg version="1.1" id="Layer_1" xmlns="http://www.w3.org/2000/svg" xmlns:xlink="http://www.w3.org/1999/xlink" x="0px" y="0px"
	 width="344px" height="238.6px" viewBox="0 0 344 238.6" style="enable-background:new 0 0 344 238.6;" xml:space="preserve">
<g>
	<g>
		<path style="fill:#FFC200;" d="M339.9,109.2l-17.8-17.8c-0.6-0.6-1.2-1.1-1.9-1.5L234.4,4.1c-5.5-5.5-14.3-5.5-19.8,0l-17.8,17.8
			c-5.5,5.5-5.5,14.3,0,19.8l77.6,77.6l-77.6,77.6c-5.5,5.5-5.5,14.3,0,19.8l17.8,17.8c5.5,5.5,14.3,5.5,19.8,0l85.8-85.8
			c0.7-0.5,1.3-1,1.9-1.5l17.8-17.8c2.8-2.8,4.1-6.4,4.1-10.1C344,115.7,342.6,112,339.9,109.2z"/>
		<path style="fill:#282828;" d="M69.6,119.3l77.6-77.6c5.5-5.5,5.5-14.3,0-19.8L129.4,4.1c-5.5-5.5-14.3-5.5-19.8,0L23.8,89.9
			c-0.7,0.5-1.3,1-1.9,1.5L4.1,109.2C1.3,112,0,115.7,0,119.3c0,3.6,1.3,7.3,4.1,10.1l17.8,17.8c0.6,0.6,1.2,1.1,1.9,1.5l85.8,85.8
			c5.5,5.5,14.3,5.5,19.8,0l17.8-17.8c5.5-5.5,5.5-14.3,0-19.8L69.6,119.3z"/>
	</g>
</g>
</svg>
