<?xml version="1.0" encoding="utf-8"?>
<!-- Generator: Adobe Illustrator 28.0.0, SVG Export Plug-In . SVG Version: 6.00 Build 0)  -->
<svg version="1.1" id="Layer_1" xmlns="http://www.w3.org/2000/svg" xmlns:xlink="http://www.w3.org/1999/xlink" x="0px" y="0px"
	 width="766.1px" height="234.4px" viewBox="0 0 766.1 234.4" style="enable-background:new 0 0 766.1 234.4;" xml:space="preserve"
	>
<g>
	<path style="fill:#282828;" d="M315.7,85.6c0,52.3-36,85.8-87.3,85.8h-66.8V0.1h66.8C279.7,0.1,315.7,33.4,315.7,85.6z M278.4,86.1
		c0-34.3-21-53.5-51.3-53.5h-28.8v106.2h28.8C257.5,138.9,278.4,119.9,278.4,86.1z"/>
	<path style="fill:#282828;" d="M327.7,104.6c0-38.2,28.6-66.8,69-66.8c40.2,0,69,28.6,69,66.8c0,38-28.8,66.8-69,66.8
		C356.3,171.4,327.7,142.6,327.7,104.6z M429.9,104.4c0-20.3-13.1-34.6-32.9-34.6c-19.8,0-33.2,14.3-33.2,34.9
		c0,20.3,13.3,34.9,33.2,34.9C416.3,139.5,429.9,125,429.9,104.4z"/>
	<path style="fill:#282828;" d="M476.3,129.1l33.3-12.8c4.3,15.9,16.6,24.7,33.5,24.7c15,0,23.8-6.4,23.8-17.1
		c0-33.1-83.5-16.4-83.5-75.2c0-28.3,21.2-48.3,58.3-48.3c30.7,0,52.1,15.2,58.3,37.8l-33.3,12.8c-4-14-13.3-20.7-26.6-20.7
		c-14,0-21.2,6.4-21.2,15.5c0,31.6,83.7,14.5,83.7,77.1c0,28.8-24,48.5-63,48.5C507.9,171.4,484.4,156.2,476.3,129.1z"/>
	<path style="fill:#282828;" d="M718.1,134.8h-63.5l-12.1,36.7h-36.2L664,0.4h44.5l57.6,171h-35.9L718.1,134.8z M708.3,105
		l-21.9-66.2L664.5,105H708.3z"/>
	<g>
		<path style="fill:#282828;" d="M161.4,217.3l7-2.7c0.9,3.3,3.5,5.2,7,5.2c3.1,0,5-1.3,5-3.6c0-6.9-17.4-3.4-17.4-15.7
			c0-5.9,4.4-10.1,12.2-10.1c6.4,0,10.9,3.2,12.2,7.9l-7,2.7c-0.8-2.9-2.8-4.3-5.6-4.3c-2.9,0-4.4,1.3-4.4,3.2
			c0,6.6,17.5,3,17.5,16.1c0,6-5,10.1-13.2,10.1C168,226.1,163.1,222.9,161.4,217.3z"/>
		<path style="fill:#282828;" d="M218.7,199.3v26.2h-6.8v-2.9c-1.9,2.2-4.6,3.5-8.1,3.5c-7.6,0-13-5.9-13-13.7
			c0-7.9,5.5-13.3,13-13.3c3.4,0,6.2,1.2,8.1,3.3v-3.2H218.7z M211.7,212.4c0-4.3-2.7-7.3-6.8-7.3c-3.9,0-6.8,3.1-6.8,7.3
			s2.8,7.2,6.8,7.2C208.9,219.6,211.7,216.7,211.7,212.4z"/>
		<path style="fill:#282828;" d="M233.6,198.6v0.7h5.7v6.3h-5.7v19.9h-7.4v-19.9h-4v-6.3h4c0-6.6,3.9-10.7,11.2-10.7h1.8v5.8h-1.6
			C235.1,194.3,233.6,195.9,233.6,198.6z"/>
		<path style="fill:#282828;" d="M254.7,220c3.2,0,4.9-1.1,6-3.2l5.6,3.7c-2,3-5.4,5.6-11.8,5.6c-8.5,0-14-5.9-14-13.7
			c0-7.6,6-13.7,13.5-13.7c8.4,0,13.5,6.6,13.5,13.2c0,1.1,0,2.1-0.1,2.8h-19.6C248.5,218.1,251.2,220,254.7,220z M260.5,209.9
			c-0.7-3.4-3-5.6-6.4-5.6c-3.4,0-5.9,2-6.6,5.6H260.5z"/>
		<path style="fill:#282828;" d="M273.2,215.7v-10.1h-4.5v-6.3h2.2c1.8,0,2.7-0.9,2.7-2.8v-4.1h7.2v6.9h6.4v6.3h-6.6v9.2
			c0,2.8,1.4,4.3,4,4.3h2.8v6.4H283C276.5,225.5,273.2,221.6,273.2,215.7z"/>
		<path style="fill:#282828;" d="M316.2,199.3l-9.6,26.2l-3.2,8.9h-7.3l3.5-8.9h-2.4l-8.7-26.2h7.6l5.9,20.3l6.7-20.3H316.2z"/>
		<path style="fill:#282828;" d="M351.6,219.1v6.4h-23.5V191h23.2v6.4h-15.8v7.4h13.9v6.4h-13.9v8H351.6z"/>
		<path style="fill:#282828;" d="M381,209v16.5h-7.3v-15.1c0-3.3-2.2-5.2-5.2-5.2c-2.9,0-5.2,2.1-5.3,4.8v15.5h-7.4v-26.2h7v2.4
			c1.8-1.8,4.5-3.1,7.9-3.1C377,198.7,381,202.9,381,209z"/>
		<path style="fill:#282828;" d="M411.1,209v16.5h-7.3v-15.1c0-3.3-2.2-5.2-5.2-5.2c-2.9,0-5.2,2.1-5.3,4.8v15.5H386v-36.3h7.4v12.2
			c1.8-1.6,4.4-2.7,7.5-2.7C407.1,198.7,411.1,202.9,411.1,209z"/>
		<path style="fill:#282828;" d="M442.8,199.3v26.2H436v-2.9c-1.9,2.2-4.6,3.5-8.1,3.5c-7.6,0-13-5.9-13-13.7
			c0-7.9,5.5-13.3,13-13.3c3.4,0,6.2,1.2,8.1,3.3v-3.2H442.8z M435.8,212.4c0-4.3-2.7-7.3-6.8-7.3c-3.9,0-6.8,3.1-6.8,7.3
			s2.8,7.2,6.8,7.2C433,219.6,435.8,216.7,435.8,212.4z"/>
		<path style="fill:#282828;" d="M473.2,209v16.5h-7.3v-15.1c0-3.3-2.2-5.2-5.2-5.2c-2.9,0-5.2,2.1-5.3,4.8v15.5h-7.4v-26.2h7v2.4
			c1.8-1.8,4.5-3.1,7.9-3.1C469.2,198.7,473.2,202.9,473.2,209z"/>
		<path style="fill:#282828;" d="M477,212.5c0-7.8,5.9-13.8,13.8-13.8c7.1,0,11.5,4.7,12.6,8.6l-6.6,2.6c-0.7-2.7-2.8-4.6-5.9-4.6
			c-3.7,0-6.6,2.8-6.6,7.2s2.9,7.2,6.6,7.2c3.1,0,5.3-1.9,6.1-4.6l6.6,2.6c-1.1,3.8-5.5,8.5-12.8,8.5
			C482.9,226.2,477,220.2,477,212.5z"/>
		<path style="fill:#282828;" d="M519.7,220c3.2,0,4.9-1.1,6-3.2l5.6,3.7c-2,3-5.4,5.6-11.8,5.6c-8.5,0-14-5.9-14-13.7
			c0-7.6,6-13.7,13.5-13.7c8.4,0,13.5,6.6,13.5,13.2c0,1.1,0,2.1-0.1,2.8h-19.6C513.5,218.1,516.2,220,519.7,220z M525.6,209.9
			c-0.7-3.4-3-5.6-6.4-5.6s-5.9,2-6.6,5.6H525.6z"/>
		<path style="fill:#282828;" d="M577.4,209.2v16.3h-7.4v-14.9c0-2.9-1.5-5.4-4.6-5.4c-3.3,0-4.8,2.5-4.9,4.7v15.6h-7.4v-14.9
			c0-2.9-1.6-5.4-4.7-5.4c-3.2,0-4.8,2.5-4.8,4.7v15.6h-7.4v-26.1h7v2.5c1.6-1.8,4.3-3.1,7.6-3.1c4,0,6.5,1.4,8,3.8
			c1.5-2.2,4.4-3.8,8.6-3.8C574,198.7,577.4,203.4,577.4,209.2z"/>
		<path style="fill:#282828;" d="M595.3,220c3.2,0,4.9-1.1,6-3.2l5.6,3.7c-2,3-5.4,5.6-11.8,5.6c-8.5,0-14-5.9-14-13.7
			c0-7.6,6-13.7,13.5-13.7c8.4,0,13.5,6.6,13.5,13.2c0,1.1,0,2.1-0.1,2.8h-19.6C589.1,218.1,591.8,220,595.3,220z M601.2,209.9
			c-0.7-3.4-3-5.6-6.4-5.6s-5.9,2-6.6,5.6H601.2z"/>
		<path style="fill:#282828;" d="M637.1,209v16.5h-7.3v-15.1c0-3.3-2.2-5.2-5.2-5.2c-2.9,0-5.2,2.1-5.3,4.8v15.5H612v-26.2h7v2.4
			c1.8-1.8,4.5-3.1,7.9-3.1C633.1,198.7,637.1,202.9,637.1,209z"/>
		<path style="fill:#282828;" d="M644,215.7v-10.1h-4.5v-6.3h2.2c1.8,0,2.7-0.9,2.7-2.8v-4.1h7.2v6.9h6.4v6.3h-6.6v9.2
			c0,2.8,1.4,4.3,4,4.3h2.8v6.4h-4.3C647.3,225.5,644,221.6,644,215.7z"/>
		<path style="fill:#282828;" d="M659.7,219.2l6.2-2.4c0.7,2.3,2.6,3.6,5.5,3.6c2.2,0,3.5-0.9,3.5-2.4c0-4.6-14-2.4-14-11.4
			c0-5,4.1-8,10.4-8c5.2,0,9,2.1,10.1,5.8l-6.2,2.4c-0.6-1.8-2-2.7-4-2.7c-2,0-3.1,0.8-3.1,2.1c0,4.2,14,1.7,14,11.3
			c0,5.3-4.3,8.5-11,8.5C665.4,226.2,661.2,223.8,659.7,219.2z"/>
		<path style="fill:#282828;" d="M696.4,191h7.4v34.5h-7.4V191z"/>
		<path style="fill:#282828;" d="M734.7,209v16.5h-7.3v-15.1c0-3.3-2.2-5.2-5.2-5.2c-2.9,0-5.2,2.1-5.3,4.8v15.5h-7.4v-26.2h7v2.4
			c1.8-1.8,4.5-3.1,7.9-3.1C730.7,198.7,734.7,202.9,734.7,209z"/>
		<path style="fill:#282828;" d="M738.5,212.5c0-7.8,5.9-13.8,13.8-13.8c7.1,0,11.5,4.7,12.6,8.6l-6.6,2.6c-0.7-2.7-2.8-4.6-5.9-4.6
			c-3.7,0-6.6,2.8-6.6,7.2s2.9,7.2,6.6,7.2c3.1,0,5.3-1.9,6.1-4.6l6.6,2.6c-1.1,3.8-5.5,8.5-12.8,8.5
			C744.5,226.2,738.5,220.2,738.5,212.5z"/>
	</g>
	<g>
		<path style="fill:#FFC200;" d="M141.4,45.5l-7.4-7.4c-0.2-0.2-0.5-0.4-0.8-0.6L97.6,1.7c-2.3-2.3-6-2.3-8.2,0l-7.4,7.4
			c-2.3,2.3-2.3,6,0,8.2l32.3,32.3L81.9,81.9c-2.3,2.3-2.3,6,0,8.2l7.4,7.4c2.3,2.3,6,2.3,8.2,0l35.7-35.7c0.3-0.2,0.5-0.4,0.8-0.6
			l7.4-7.4c1.2-1.2,1.7-2.7,1.7-4.2C143.2,48.1,142.6,46.6,141.4,45.5z"/>
		<path style="fill:#282828;" d="M29,49.6l32.3-32.3c2.3-2.3,2.3-6,0-8.2l-7.4-7.4c-2.3-2.3-6-2.3-8.2,0L9.9,37.4
			c-0.3,0.2-0.5,0.4-0.8,0.6l-7.4,7.4C0.5,46.6,0,48.1,0,49.6c0,1.5,0.5,3,1.7,4.2l7.4,7.4c0.2,0.2,0.5,0.4,0.8,0.6l35.7,35.7
			c2.3,2.3,6,2.3,8.2,0l7.4-7.4c2.3-2.3,2.3-6,0-8.2L29,49.6z"/>
	</g>
</g>
</svg>
