<svg width="1193" height="349" viewBox="0 0 1193 349" fill="none" xmlns="http://www.w3.org/2000/svg">
<g filter="url(#filter0_ii_12_3)">
<path d="M51.2 0H297.8C315.722 0 324.683 0 331.528 3.48779C337.549 6.55573 342.444 11.4511 345.512 17.4723C349 24.3175 349 33.2783 349 51.2V174.5V240.542C349 248.369 349 252.283 348.116 255.965C347.332 259.231 346.039 262.352 344.284 265.215C342.306 268.444 339.538 271.212 334.004 276.746L276.746 334.004L276.746 334.004C271.212 339.538 268.444 342.306 265.215 344.284C262.352 346.039 259.231 347.332 255.965 348.116C252.283 349 248.369 349 240.542 349H174.5H51.2C33.2783 349 24.3175 349 17.4723 345.512C11.4511 342.444 6.55574 337.549 3.48779 331.528C0 324.683 0 315.722 0 297.8V51.2C0 33.2783 0 24.3175 3.48779 17.4723C6.55574 11.4511 11.4511 6.55573 17.4723 3.48779C24.3175 0 33.2783 0 51.2 0Z" fill="#30efa6"/>
</g>
<mask id="mask0_12_3" style="mask-type:alpha" maskUnits="userSpaceOnUse" x="0" y="0" width="349" height="349">
<path d="M51.2 0H297.8C315.722 0 324.683 0 331.528 3.48779C337.549 6.55573 342.444 11.4511 345.512 17.4723C349 24.3175 349 33.2783 349 51.2V174.5V240.542C349 248.369 349 252.283 348.116 255.965C347.332 259.231 346.039 262.352 344.284 265.215C342.306 268.444 339.538 271.212 334.004 276.746L276.746 334.004L276.746 334.004C271.212 339.538 268.444 342.306 265.215 344.284C262.352 346.039 259.231 347.332 255.965 348.116C252.283 349 248.369 349 240.542 349H174.5H51.2C33.2783 349 24.3175 349 17.4723 345.512C11.4511 342.444 6.55574 337.549 3.48779 331.528C0 324.683 0 315.722 0 297.8V51.2C0 33.2783 0 24.3175 3.48779 17.4723C6.55574 11.4511 11.4511 6.55573 17.4723 3.48779C24.3175 0 33.2783 0 51.2 0Z" fill="#95F270"/>
</mask>
<g mask="url(#mask0_12_3)">
<g filter="url(#filter1_d_12_3)">
<path d="M252 272.2V326.952C252 340.866 252 347.822 254.79 351.163C257.212 354.063 260.86 355.653 264.634 355.453C268.98 355.224 274.076 350.488 284.269 341.018L343.197 286.266C354.347 275.906 359.922 270.726 360.39 266.249C360.796 262.366 359.289 258.529 356.349 255.962C352.957 253 345.348 253 330.128 253H271.2C264.479 253 261.119 253 258.552 254.308C256.294 255.458 254.458 257.294 253.308 259.552C252 262.119 252 265.479 252 272.2Z" fill="#009966"/>
</g>
</g>
<path d="M226.675 91.2406C227.698 89.6748 228.174 87.8151 228.031 85.9506C227.887 84.0861 227.132 82.3211 225.882 80.9301C224.632 79.539 222.958 78.5998 221.12 78.2584C219.281 77.917 217.381 78.1925 215.715 79.0421L87.2938 144.681C85.8354 145.427 84.624 146.579 83.8059 147.998C82.9877 149.417 82.5978 151.042 82.6831 152.678C82.7685 154.314 83.3255 155.89 84.2869 157.216C85.2483 158.542 86.573 159.562 88.1011 160.152L147.552 183.101C152.655 185.071 154.643 191.244 151.648 195.822L118.868 245.921C117.846 247.487 117.369 249.347 117.513 251.211C117.656 253.076 118.411 254.841 119.661 256.232C120.911 257.623 122.585 258.562 124.424 258.904C126.263 259.245 128.162 258.97 129.828 258.12L258.25 192.481C259.708 191.735 260.92 190.583 261.738 189.164C262.556 187.745 262.946 186.12 262.86 184.484C262.775 182.848 262.218 181.272 261.257 179.946C260.295 178.62 258.971 177.6 257.442 177.01L197.992 154.061C192.888 152.091 190.9 145.918 193.895 141.34L226.675 91.2406Z" fill="#009966"/>
<path d="M511.155 278.979C500.913 278.979 491.346 277.722 482.456 275.21C473.567 272.698 465.643 269.219 458.686 264.774C451.728 260.136 445.93 255.015 441.292 249.41C436.847 243.805 433.948 237.911 432.596 231.727L471.441 220.131C473.953 226.702 478.398 232.403 484.776 237.235C491.153 241.873 499.173 244.289 508.836 244.482C519.079 244.675 527.389 242.453 533.767 237.814C540.338 233.176 543.623 227.185 543.623 219.841C543.623 213.464 541.014 208.149 535.796 203.897C530.771 199.452 523.814 196.07 514.924 193.751L488.544 186.794C478.688 184.282 469.991 180.513 462.454 175.488C454.917 170.27 449.023 163.893 444.771 156.356C440.519 148.818 438.393 140.025 438.393 129.976C438.393 110.843 444.674 95.9621 457.236 85.3328C469.991 74.5103 487.964 69.099 511.155 69.099C524.104 69.099 535.41 71.0316 545.073 74.8968C554.929 78.5687 563.142 83.8834 569.713 90.8407C576.284 97.798 581.309 106.012 584.787 115.481L546.232 127.367C543.913 120.796 539.661 115.191 533.477 110.553C527.293 105.915 519.466 103.596 509.996 103.596C500.333 103.596 492.699 105.818 487.095 110.263C481.683 114.708 478.978 120.989 478.978 129.106C478.978 135.484 481.104 140.508 485.355 144.18C489.8 147.852 495.791 150.654 503.328 152.587L529.998 159.255C547.392 163.506 560.92 171.14 570.583 182.156C580.246 193.172 585.077 205.443 585.077 218.972C585.077 230.954 582.178 241.486 576.381 250.57C570.583 259.459 562.176 266.417 551.16 271.442C540.144 276.466 526.809 278.979 511.155 278.979ZM673.326 278.979C657.285 278.979 645.11 275.017 636.8 267.093C628.683 259.17 624.624 247.864 624.624 233.176V85.3328H662.89V224.769C662.89 230.954 664.243 235.689 666.948 238.974C669.654 242.066 673.616 243.612 678.834 243.612C680.766 243.612 682.892 243.226 685.211 242.453C687.53 241.486 689.946 240.134 692.458 238.394L705.793 267.093C701.155 270.572 695.937 273.374 690.139 275.5C684.535 277.819 678.93 278.979 673.326 278.979ZM601.143 163.023V130.555H699.126V163.023H601.143ZM825.907 275.5L823.588 248.83V130.555H861.853V275.5H825.907ZM727.635 204.767V130.555H765.9V204.767H727.635ZM765.9 204.767C765.9 214.43 766.963 222.064 769.089 227.668C771.408 233.08 774.597 237.041 778.655 239.554C782.907 241.873 787.642 243.032 792.86 243.032C802.909 243.226 810.543 240.23 815.761 234.046C820.979 227.668 823.588 218.488 823.588 206.506H836.633C836.633 221.967 834.314 235.109 829.676 245.931C825.037 256.561 818.66 264.774 810.543 270.572C802.426 276.176 792.86 278.979 781.844 278.979C770.248 278.979 760.392 276.66 752.275 272.021C744.158 267.383 737.974 260.233 733.722 250.57C729.664 240.713 727.635 228.055 727.635 212.594V204.767H765.9ZM964.868 278.979C949.794 278.979 936.362 275.79 924.573 269.412C912.785 262.842 903.605 253.855 897.034 242.453C890.463 230.857 887.178 217.715 887.178 203.028C887.178 188.147 890.463 175.005 897.034 163.603C903.605 152.201 912.688 143.311 924.284 136.933C935.879 130.362 949.214 127.077 964.288 127.077C978.783 127.077 992.021 130.652 1004 137.803C1015.99 144.953 1024.68 155.293 1030.09 168.821L994.147 181.576C991.441 175.971 987.189 171.526 981.392 168.241C975.787 164.762 969.506 163.023 962.549 163.023C955.398 163.023 949.117 164.762 943.706 168.241C938.295 171.526 934.043 176.165 930.951 182.156C927.859 188.147 926.313 195.104 926.313 203.028C926.313 210.951 927.859 217.909 930.951 223.9C934.043 229.698 938.392 234.336 943.996 237.814C949.601 241.293 955.978 243.032 963.129 243.032C970.086 243.032 976.367 241.196 981.971 237.525C987.769 233.853 992.021 229.021 994.727 223.03L1030.96 235.785C1025.36 249.507 1016.56 260.136 1004.58 267.673C992.794 275.21 979.556 278.979 964.868 278.979ZM1089.78 238.684L1066.88 212.304L1141.09 130.555H1186.6L1089.78 238.684ZM1053.25 275.5V72.5777H1091.52V275.5H1053.25ZM1146.02 275.5L1097.9 205.347L1122.83 178.967L1190.95 275.5H1146.02Z" fill="#222222"/>
<defs>
<filter id="filter0_ii_12_3" x="-6" y="-6" width="357" height="357" filterUnits="userSpaceOnUse" color-interpolation-filters="sRGB">
<feFlood flood-opacity="0" result="BackgroundImageFix"/>
<feBlend mode="normal" in="SourceGraphic" in2="BackgroundImageFix" result="shape"/>
<feColorMatrix in="SourceAlpha" type="matrix" values="0 0 0 0 0 0 0 0 0 0 0 0 0 0 0 0 0 0 127 0" result="hardAlpha"/>
<feOffset dx="-6" dy="-6"/>
<feGaussianBlur stdDeviation="10"/>
<feComposite in2="hardAlpha" operator="arithmetic" k2="-1" k3="1"/>
<feColorMatrix type="matrix" values="0 0 0 0 0 0 0 0 0 0 0 0 0 0 0 0 0 0 0.15 0"/>
<feBlend mode="normal" in2="shape" result="effect1_innerShadow_12_3"/>
<feColorMatrix in="SourceAlpha" type="matrix" values="0 0 0 0 0 0 0 0 0 0 0 0 0 0 0 0 0 0 127 0" result="hardAlpha"/>
<feOffset dx="2" dy="2"/>
<feGaussianBlur stdDeviation="7.85"/>
<feComposite in2="hardAlpha" operator="arithmetic" k2="-1" k3="1"/>
<feColorMatrix type="matrix" values="0 0 0 0 1 0 0 0 0 1 0 0 0 0 1 0 0 0 0.57 0"/>
<feBlend mode="normal" in2="effect1_innerShadow_12_3" result="effect2_innerShadow_12_3"/>
</filter>
<filter id="filter1_d_12_3" x="223" y="235" width="162.455" height="156.47" filterUnits="userSpaceOnUse" color-interpolation-filters="sRGB">
<feFlood flood-opacity="0" result="BackgroundImageFix"/>
<feColorMatrix in="SourceAlpha" type="matrix" values="0 0 0 0 0 0 0 0 0 0 0 0 0 0 0 0 0 0 127 0" result="hardAlpha"/>
<feOffset dx="-2" dy="9"/>
<feGaussianBlur stdDeviation="13.5"/>
<feComposite in2="hardAlpha" operator="out"/>
<feColorMatrix type="matrix" values="0 0 0 0 0 0 0 0 0 0 0 0 0 0 0 0 0 0 0.15 0"/>
<feBlend mode="normal" in2="BackgroundImageFix" result="effect1_dropShadow_12_3"/>
<feBlend mode="normal" in="SourceGraphic" in2="effect1_dropShadow_12_3" result="shape"/>
</filter>
</defs>
</svg>
