<svg width="349" height="349" viewBox="0 0 349 349" fill="none" xmlns="http://www.w3.org/2000/svg">
<g filter="url(#filter0_ii_12_21)">
<path d="M51.2 0H297.8C315.722 0 324.683 0 331.528 3.48779C337.549 6.55573 342.444 11.4511 345.512 17.4723C349 24.3175 349 33.2783 349 51.2V174.5V240.542C349 248.369 349 252.283 348.116 255.965C347.332 259.231 346.039 262.352 344.284 265.215C342.306 268.444 339.538 271.212 334.004 276.746L276.746 334.004L276.746 334.004C271.212 339.538 268.444 342.306 265.215 344.284C262.352 346.039 259.231 347.332 255.965 348.116C252.283 349 248.369 349 240.542 349H174.5H51.2C33.2783 349 24.3175 349 17.4723 345.512C11.4511 342.444 6.55574 337.549 3.48779 331.528C0 324.683 0 315.722 0 297.8V51.2C0 33.2783 0 24.3175 3.48779 17.4723C6.55574 11.4511 11.4511 6.55573 17.4723 3.48779C24.3175 0 33.2783 0 51.2 0Z" fill="#30efa6"/>
</g>
<mask id="mask0_12_21" style="mask-type:alpha" maskUnits="userSpaceOnUse" x="0" y="0" width="349" height="349">
<path d="M51.2 0H297.8C315.722 0 324.683 0 331.528 3.48779C337.549 6.55573 342.444 11.4511 345.512 17.4723C349 24.3175 349 33.2783 349 51.2V174.5V240.542C349 248.369 349 252.283 348.116 255.965C347.332 259.231 346.039 262.352 344.284 265.215C342.306 268.444 339.538 271.212 334.004 276.746L276.746 334.004L276.746 334.004C271.212 339.538 268.444 342.306 265.215 344.284C262.352 346.039 259.231 347.332 255.965 348.116C252.283 349 248.369 349 240.542 349H174.5H51.2C33.2783 349 24.3175 349 17.4723 345.512C11.4511 342.444 6.55574 337.549 3.48779 331.528C0 324.683 0 315.722 0 297.8V51.2C0 33.2783 0 24.3175 3.48779 17.4723C6.55574 11.4511 11.4511 6.55573 17.4723 3.48779C24.3175 0 33.2783 0 51.2 0Z" fill="#30efa6"/>
</mask>
<g mask="url(#mask0_12_21)">
<g filter="url(#filter1_d_12_21)">
<path d="M252 272.2V326.952C252 340.866 252 347.822 254.79 351.163C257.212 354.063 260.86 355.653 264.634 355.453C268.98 355.224 274.076 350.488 284.269 341.018L343.197 286.266C354.347 275.906 359.922 270.726 360.39 266.249C360.796 262.366 359.289 258.529 356.349 255.962C352.957 253 345.348 253 330.128 253H271.2C264.479 253 261.119 253 258.552 254.308C256.294 255.458 254.458 257.294 253.308 259.552C252 262.119 252 265.479 252 272.2Z" fill="#009966"/>
</g>
</g>
<path d="M226.675 91.2406C227.698 89.6748 228.174 87.8151 228.031 85.9506C227.887 84.0861 227.132 82.3211 225.882 80.9301C224.632 79.539 222.958 78.5998 221.12 78.2584C219.281 77.917 217.381 78.1925 215.715 79.0421L87.2938 144.681C85.8354 145.427 84.624 146.579 83.8059 147.998C82.9877 149.417 82.5978 151.042 82.6831 152.678C82.7685 154.314 83.3255 155.89 84.2869 157.216C85.2483 158.542 86.573 159.562 88.1011 160.152L147.552 183.101C152.655 185.071 154.643 191.244 151.648 195.822L118.868 245.921C117.846 247.487 117.369 249.347 117.513 251.211C117.656 253.076 118.411 254.841 119.661 256.232C120.911 257.623 122.585 258.562 124.424 258.904C126.263 259.245 128.162 258.97 129.828 258.12L258.25 192.481C259.708 191.735 260.92 190.583 261.738 189.164C262.556 187.745 262.946 186.12 262.86 184.484C262.775 182.848 262.218 181.272 261.257 179.946C260.295 178.62 258.971 177.6 257.442 177.01L197.992 154.061C192.888 152.091 190.9 145.918 193.895 141.34L226.675 91.2406Z" fill="#009966"/>
<defs>
<filter id="filter0_ii_12_21" x="-6" y="-6" width="357" height="357" filterUnits="userSpaceOnUse" color-interpolation-filters="sRGB">
<feFlood flood-opacity="0" result="BackgroundImageFix"/>
<feBlend mode="normal" in="SourceGraphic" in2="BackgroundImageFix" result="shape"/>
<feColorMatrix in="SourceAlpha" type="matrix" values="0 0 0 0 0 0 0 0 0 0 0 0 0 0 0 0 0 0 127 0" result="hardAlpha"/>
<feOffset dx="-6" dy="-6"/>
<feGaussianBlur stdDeviation="10"/>
<feComposite in2="hardAlpha" operator="arithmetic" k2="-1" k3="1"/>
<feColorMatrix type="matrix" values="0 0 0 0 0 0 0 0 0 0 0 0 0 0 0 0 0 0 0.15 0"/>
<feBlend mode="normal" in2="shape" result="effect1_innerShadow_12_21"/>
<feColorMatrix in="SourceAlpha" type="matrix" values="0 0 0 0 0 0 0 0 0 0 0 0 0 0 0 0 0 0 127 0" result="hardAlpha"/>
<feOffset dx="2" dy="2"/>
<feGaussianBlur stdDeviation="7.85"/>
<feComposite in2="hardAlpha" operator="arithmetic" k2="-1" k3="1"/>
<feColorMatrix type="matrix" values="0 0 0 0 1 0 0 0 0 1 0 0 0 0 1 0 0 0 0.57 0"/>
<feBlend mode="normal" in2="effect1_innerShadow_12_21" result="effect2_innerShadow_12_21"/>
</filter>
<filter id="filter1_d_12_21" x="223" y="235" width="162.455" height="156.47" filterUnits="userSpaceOnUse" color-interpolation-filters="sRGB">
<feFlood flood-opacity="0" result="BackgroundImageFix"/>
<feColorMatrix in="SourceAlpha" type="matrix" values="0 0 0 0 0 0 0 0 0 0 0 0 0 0 0 0 0 0 127 0" result="hardAlpha"/>
<feOffset dx="-2" dy="9"/>
<feGaussianBlur stdDeviation="13.5"/>
<feComposite in2="hardAlpha" operator="out"/>
<feColorMatrix type="matrix" values="0 0 0 0 0 0 0 0 0 0 0 0 0 0 0 0 0 0 0.15 0"/>
<feBlend mode="normal" in2="BackgroundImageFix" result="effect1_dropShadow_12_21"/>
<feBlend mode="normal" in="SourceGraphic" in2="effect1_dropShadow_12_21" result="shape"/>
</filter>
</defs>
</svg>
